# xmcd
#
# Track frame offsets: 
#        150
#        15882
#        30835
#        50618
#        71296
#        88931
#        106355
#        123757
#        138363
#        158551
#        180792
#        212354
#        239487
#        257327
#        285478
#
# Disc length: 4440 seconds
#
# Revision: 0
# Processed by: cddbd v1.5.2PL0 Copyright (c) Steve Scherf et al.
# Submitted via: ExactAudioCopy v0.95a5
#
DISCID=ae11560f
DTITLE=Kaja - Crazy Peoples Right To Speak
DYEAR=1985
DGENRE=A Cappella
TTITLE0=Do I
TTITLE1=Shouldn't Do That
TTITLE2=Your Appetite
TTITLE3=Rivers
TTITLE4=Sit Down And Shut Up
TTITLE5=Afraid Of You
TTITLE6=Jigsaw
TTITLE7=Fear Of Falling
TTITLE8=Charm Of A Gun
TTITLE9=You Really Take My Breath Away
TTITLE10=Shouldn't Do That (Disciplined)
TTITLE11=Shouldn't Do That (Undisciplined)
TTITLE12=Hurricane
TTITLE13=Whatever You Want
TTITLE14=CopyProtect
EXTD=
EXTT0=
EXTT1=
EXTT2=
EXTT3=
EXTT4=
EXTT5=
EXTT6=
EXTT7=
EXTT8=
EXTT9=
EXTT10=
EXTT11=
EXTT12=
EXTT13=
EXTT14=
PLAYORDER=
